<mxfile host="app.diagrams.net" modified="2024-03-28T05:36:48.023Z" agent="Mozilla/5.0 (Windows NT 10.0; Win64; x64; rv:124.0) Gecko/20100101 Firefox/124.0" etag="L2xv9T3NLCk5Y6KLCpgP" version="24.0.7" type="device">
  <diagram name="Page-1" id="4Fgv2s5Ngaii6wGcBX6x">
    <mxGraphModel dx="610" dy="329" grid="1" gridSize="10" guides="1" tooltips="1" connect="1" arrows="1" fold="1" page="1" pageScale="1" pageWidth="850" pageHeight="1100" math="0" shadow="0">
      <root>
        <mxCell id="0" />
        <mxCell id="1" parent="0" />
        <mxCell id="dkFRvmLCK25_qu1i1x-R-31" style="edgeStyle=orthogonalEdgeStyle;rounded=0;orthogonalLoop=1;jettySize=auto;html=1;exitX=0.5;exitY=1;exitDx=0;exitDy=0;entryX=0.5;entryY=0;entryDx=0;entryDy=0;" edge="1" parent="1" source="dkFRvmLCK25_qu1i1x-R-1" target="dkFRvmLCK25_qu1i1x-R-9">
          <mxGeometry relative="1" as="geometry" />
        </mxCell>
        <mxCell id="dkFRvmLCK25_qu1i1x-R-1" value="Start" style="rounded=1;whiteSpace=wrap;html=1;" vertex="1" parent="1">
          <mxGeometry x="360" y="120" width="120" height="60" as="geometry" />
        </mxCell>
        <mxCell id="dkFRvmLCK25_qu1i1x-R-28" style="edgeStyle=orthogonalEdgeStyle;rounded=0;orthogonalLoop=1;jettySize=auto;html=1;exitX=0.5;exitY=1;exitDx=0;exitDy=0;entryX=0.5;entryY=0;entryDx=0;entryDy=0;" edge="1" parent="1" source="dkFRvmLCK25_qu1i1x-R-2" target="dkFRvmLCK25_qu1i1x-R-3">
          <mxGeometry relative="1" as="geometry" />
        </mxCell>
        <mxCell id="dkFRvmLCK25_qu1i1x-R-32" style="edgeStyle=orthogonalEdgeStyle;rounded=0;orthogonalLoop=1;jettySize=auto;html=1;exitX=1;exitY=0.5;exitDx=0;exitDy=0;entryX=0;entryY=0.5;entryDx=0;entryDy=0;dashed=1;" edge="1" parent="1" source="dkFRvmLCK25_qu1i1x-R-2" target="dkFRvmLCK25_qu1i1x-R-5">
          <mxGeometry relative="1" as="geometry" />
        </mxCell>
        <mxCell id="dkFRvmLCK25_qu1i1x-R-33" style="edgeStyle=orthogonalEdgeStyle;rounded=0;orthogonalLoop=1;jettySize=auto;html=1;exitX=0;exitY=0.5;exitDx=0;exitDy=0;entryX=1;entryY=0.5;entryDx=0;entryDy=0;dashed=1;" edge="1" parent="1" source="dkFRvmLCK25_qu1i1x-R-2" target="dkFRvmLCK25_qu1i1x-R-10">
          <mxGeometry relative="1" as="geometry" />
        </mxCell>
        <mxCell id="dkFRvmLCK25_qu1i1x-R-2" value="Set EIMSK to 00000011" style="rounded=0;whiteSpace=wrap;html=1;" vertex="1" parent="1">
          <mxGeometry x="360" y="480" width="120" height="60" as="geometry" />
        </mxCell>
        <mxCell id="dkFRvmLCK25_qu1i1x-R-27" style="edgeStyle=orthogonalEdgeStyle;rounded=0;orthogonalLoop=1;jettySize=auto;html=1;exitX=0.5;exitY=1;exitDx=0;exitDy=0;entryX=0.5;entryY=0;entryDx=0;entryDy=0;" edge="1" parent="1" source="dkFRvmLCK25_qu1i1x-R-3" target="dkFRvmLCK25_qu1i1x-R-4">
          <mxGeometry relative="1" as="geometry" />
        </mxCell>
        <mxCell id="dkFRvmLCK25_qu1i1x-R-3" value="Set EIRCA to 00001010" style="rounded=0;whiteSpace=wrap;html=1;" vertex="1" parent="1">
          <mxGeometry x="360" y="600" width="120" height="60" as="geometry" />
        </mxCell>
        <mxCell id="dkFRvmLCK25_qu1i1x-R-26" style="edgeStyle=orthogonalEdgeStyle;rounded=0;orthogonalLoop=1;jettySize=auto;html=1;exitX=0.5;exitY=1;exitDx=0;exitDy=0;entryX=0.5;entryY=0;entryDx=0;entryDy=0;" edge="1" parent="1" source="dkFRvmLCK25_qu1i1x-R-4" target="dkFRvmLCK25_qu1i1x-R-13">
          <mxGeometry relative="1" as="geometry" />
        </mxCell>
        <mxCell id="dkFRvmLCK25_qu1i1x-R-4" value="Set TCCR0B to 00000101" style="rounded=0;whiteSpace=wrap;html=1;" vertex="1" parent="1">
          <mxGeometry x="360" y="720" width="120" height="60" as="geometry" />
        </mxCell>
        <mxCell id="dkFRvmLCK25_qu1i1x-R-34" style="edgeStyle=orthogonalEdgeStyle;rounded=0;orthogonalLoop=1;jettySize=auto;html=1;exitX=0.5;exitY=1;exitDx=0;exitDy=0;entryX=0.5;entryY=0;entryDx=0;entryDy=0;" edge="1" parent="1" source="dkFRvmLCK25_qu1i1x-R-5" target="dkFRvmLCK25_qu1i1x-R-6">
          <mxGeometry relative="1" as="geometry" />
        </mxCell>
        <mxCell id="dkFRvmLCK25_qu1i1x-R-5" value="Start / Stop Interrupt" style="rounded=1;whiteSpace=wrap;html=1;" vertex="1" parent="1">
          <mxGeometry x="560" y="480" width="120" height="60" as="geometry" />
        </mxCell>
        <mxCell id="dkFRvmLCK25_qu1i1x-R-6" value="Toggle counting" style="rounded=0;whiteSpace=wrap;html=1;" vertex="1" parent="1">
          <mxGeometry x="560" y="600" width="120" height="60" as="geometry" />
        </mxCell>
        <mxCell id="dkFRvmLCK25_qu1i1x-R-8" value="Set counting to false" style="rounded=0;whiteSpace=wrap;html=1;" vertex="1" parent="1">
          <mxGeometry x="360" y="360" width="120" height="60" as="geometry" />
        </mxCell>
        <mxCell id="dkFRvmLCK25_qu1i1x-R-30" style="edgeStyle=orthogonalEdgeStyle;rounded=0;orthogonalLoop=1;jettySize=auto;html=1;exitX=0.5;exitY=1;exitDx=0;exitDy=0;entryX=0.5;entryY=0;entryDx=0;entryDy=0;" edge="1" parent="1" source="dkFRvmLCK25_qu1i1x-R-9" target="dkFRvmLCK25_qu1i1x-R-8">
          <mxGeometry relative="1" as="geometry" />
        </mxCell>
        <mxCell id="dkFRvmLCK25_qu1i1x-R-9" value="Set time to 0" style="rounded=0;whiteSpace=wrap;html=1;" vertex="1" parent="1">
          <mxGeometry x="360" y="240" width="120" height="60" as="geometry" />
        </mxCell>
        <mxCell id="dkFRvmLCK25_qu1i1x-R-35" style="edgeStyle=orthogonalEdgeStyle;rounded=0;orthogonalLoop=1;jettySize=auto;html=1;exitX=0.5;exitY=1;exitDx=0;exitDy=0;entryX=0.5;entryY=0;entryDx=0;entryDy=0;" edge="1" parent="1" source="dkFRvmLCK25_qu1i1x-R-10" target="dkFRvmLCK25_qu1i1x-R-11">
          <mxGeometry relative="1" as="geometry" />
        </mxCell>
        <mxCell id="dkFRvmLCK25_qu1i1x-R-10" value="Reset Interrupt" style="rounded=1;whiteSpace=wrap;html=1;" vertex="1" parent="1">
          <mxGeometry x="160" y="480" width="120" height="60" as="geometry" />
        </mxCell>
        <mxCell id="dkFRvmLCK25_qu1i1x-R-36" style="edgeStyle=orthogonalEdgeStyle;rounded=0;orthogonalLoop=1;jettySize=auto;html=1;exitX=0.5;exitY=1;exitDx=0;exitDy=0;entryX=0.5;entryY=0;entryDx=0;entryDy=0;" edge="1" parent="1" source="dkFRvmLCK25_qu1i1x-R-11" target="dkFRvmLCK25_qu1i1x-R-12">
          <mxGeometry relative="1" as="geometry" />
        </mxCell>
        <mxCell id="dkFRvmLCK25_qu1i1x-R-11" value="Set counting to false" style="rounded=0;whiteSpace=wrap;html=1;" vertex="1" parent="1">
          <mxGeometry x="160" y="600" width="120" height="60" as="geometry" />
        </mxCell>
        <mxCell id="dkFRvmLCK25_qu1i1x-R-12" value="Set time to 0" style="rounded=0;whiteSpace=wrap;html=1;" vertex="1" parent="1">
          <mxGeometry x="160" y="720" width="120" height="60" as="geometry" />
        </mxCell>
        <mxCell id="dkFRvmLCK25_qu1i1x-R-25" style="edgeStyle=orthogonalEdgeStyle;rounded=0;orthogonalLoop=1;jettySize=auto;html=1;exitX=0.5;exitY=1;exitDx=0;exitDy=0;entryX=0.5;entryY=0;entryDx=0;entryDy=0;" edge="1" parent="1" source="dkFRvmLCK25_qu1i1x-R-13" target="dkFRvmLCK25_qu1i1x-R-14">
          <mxGeometry relative="1" as="geometry" />
        </mxCell>
        <mxCell id="dkFRvmLCK25_qu1i1x-R-13" value="Set TCCR0A to 00000000" style="rounded=0;whiteSpace=wrap;html=1;" vertex="1" parent="1">
          <mxGeometry x="360" y="840" width="120" height="60" as="geometry" />
        </mxCell>
        <mxCell id="dkFRvmLCK25_qu1i1x-R-24" style="edgeStyle=orthogonalEdgeStyle;rounded=0;orthogonalLoop=1;jettySize=auto;html=1;exitX=0.5;exitY=1;exitDx=0;exitDy=0;entryX=0.5;entryY=0;entryDx=0;entryDy=0;" edge="1" parent="1" source="dkFRvmLCK25_qu1i1x-R-14" target="dkFRvmLCK25_qu1i1x-R-15">
          <mxGeometry relative="1" as="geometry" />
        </mxCell>
        <mxCell id="dkFRvmLCK25_qu1i1x-R-37" style="edgeStyle=orthogonalEdgeStyle;rounded=0;orthogonalLoop=1;jettySize=auto;html=1;exitX=1;exitY=0.5;exitDx=0;exitDy=0;entryX=0;entryY=0.5;entryDx=0;entryDy=0;dashed=1;" edge="1" parent="1" source="dkFRvmLCK25_qu1i1x-R-14" target="dkFRvmLCK25_qu1i1x-R-16">
          <mxGeometry relative="1" as="geometry" />
        </mxCell>
        <mxCell id="dkFRvmLCK25_qu1i1x-R-14" value="Set TIFR0 to 00000001" style="rounded=0;whiteSpace=wrap;html=1;" vertex="1" parent="1">
          <mxGeometry x="360" y="960" width="120" height="60" as="geometry" />
        </mxCell>
        <mxCell id="dkFRvmLCK25_qu1i1x-R-23" style="edgeStyle=orthogonalEdgeStyle;rounded=0;orthogonalLoop=1;jettySize=auto;html=1;exitX=0.5;exitY=1;exitDx=0;exitDy=0;entryX=0.5;entryY=0;entryDx=0;entryDy=0;" edge="1" parent="1" source="dkFRvmLCK25_qu1i1x-R-15" target="dkFRvmLCK25_qu1i1x-R-18">
          <mxGeometry relative="1" as="geometry" />
        </mxCell>
        <mxCell id="dkFRvmLCK25_qu1i1x-R-15" value="Set TIMSK to 00000001" style="rounded=0;whiteSpace=wrap;html=1;" vertex="1" parent="1">
          <mxGeometry x="360" y="1080" width="120" height="60" as="geometry" />
        </mxCell>
        <mxCell id="dkFRvmLCK25_qu1i1x-R-38" style="edgeStyle=orthogonalEdgeStyle;rounded=0;orthogonalLoop=1;jettySize=auto;html=1;exitX=0.5;exitY=1;exitDx=0;exitDy=0;entryX=0.5;entryY=0;entryDx=0;entryDy=0;" edge="1" parent="1" source="dkFRvmLCK25_qu1i1x-R-16" target="dkFRvmLCK25_qu1i1x-R-17">
          <mxGeometry relative="1" as="geometry" />
        </mxCell>
        <mxCell id="dkFRvmLCK25_qu1i1x-R-16" value="Increment time interrupt" style="rounded=1;whiteSpace=wrap;html=1;" vertex="1" parent="1">
          <mxGeometry x="560" y="960" width="120" height="60" as="geometry" />
        </mxCell>
        <mxCell id="dkFRvmLCK25_qu1i1x-R-17" value="Increment time by 1/61.035" style="rounded=0;whiteSpace=wrap;html=1;" vertex="1" parent="1">
          <mxGeometry x="560" y="1080" width="120" height="60" as="geometry" />
        </mxCell>
        <mxCell id="dkFRvmLCK25_qu1i1x-R-21" style="edgeStyle=orthogonalEdgeStyle;rounded=0;orthogonalLoop=1;jettySize=auto;html=1;exitX=0.5;exitY=1;exitDx=0;exitDy=0;entryX=0.5;entryY=0;entryDx=0;entryDy=0;" edge="1" parent="1" source="dkFRvmLCK25_qu1i1x-R-18" target="dkFRvmLCK25_qu1i1x-R-19">
          <mxGeometry relative="1" as="geometry" />
        </mxCell>
        <mxCell id="dkFRvmLCK25_qu1i1x-R-18" value="Init LCD" style="rounded=0;whiteSpace=wrap;html=1;" vertex="1" parent="1">
          <mxGeometry x="360" y="1200" width="120" height="60" as="geometry" />
        </mxCell>
        <mxCell id="dkFRvmLCK25_qu1i1x-R-20" style="edgeStyle=orthogonalEdgeStyle;rounded=0;orthogonalLoop=1;jettySize=auto;html=1;exitX=0.5;exitY=1;exitDx=0;exitDy=0;" edge="1" parent="1" source="dkFRvmLCK25_qu1i1x-R-19">
          <mxGeometry relative="1" as="geometry">
            <mxPoint x="420" y="1300" as="targetPoint" />
            <Array as="points">
              <mxPoint x="420" y="1400" />
              <mxPoint x="340" y="1400" />
              <mxPoint x="340" y="1300" />
              <mxPoint x="420" y="1300" />
            </Array>
          </mxGeometry>
        </mxCell>
        <mxCell id="dkFRvmLCK25_qu1i1x-R-19" value="Show time on LCD" style="rounded=0;whiteSpace=wrap;html=1;" vertex="1" parent="1">
          <mxGeometry x="360" y="1320" width="120" height="60" as="geometry" />
        </mxCell>
        <mxCell id="dkFRvmLCK25_qu1i1x-R-29" style="edgeStyle=orthogonalEdgeStyle;rounded=0;orthogonalLoop=1;jettySize=auto;html=1;exitX=0.5;exitY=1;exitDx=0;exitDy=0;entryX=0.502;entryY=-0.044;entryDx=0;entryDy=0;entryPerimeter=0;" edge="1" parent="1" source="dkFRvmLCK25_qu1i1x-R-8" target="dkFRvmLCK25_qu1i1x-R-2">
          <mxGeometry relative="1" as="geometry" />
        </mxCell>
      </root>
    </mxGraphModel>
  </diagram>
</mxfile>
